{"accessors":[{"bufferView":0,"byteOffset":0,"componentType":5126,"count":756,"max":[4,2,16],"min":[-16,-2,-4],"normalized":false,"type":"VEC3"},{"bufferView":1,"byteOffset":0,"componentType":5126,"count":756,"max":[1,0.000046,0.000076,1],"min":[-1,-1,-1,-1],"normalized":false,"type":"VEC4"},{"bufferView":2,"byteOffset":0,"componentType":5126,"count":756,"max":[1,1,1],"min":[-1,-1,-1],"normalized":false,"type":"VEC3"},{"bufferView":3,"byteOffset":0,"componentType":5126,"count":756,"max":[1,1],"min":[0,0],"normalized":false,"type":"VEC2"},{"bufferView":4,"byteOffset":0,"componentType":5125,"count":756,"max":[755],"min":[0],"normalized":false,"type":"SCALAR"}],"asset":{"generator":"Godot Engine v4.2.1.stable.flathub@b09f793f564a6c95dc76acc654b390e68441bd01","version":"2.0"},"bufferViews":[{"buffer":0,"byteLength":9072,"byteOffset":0},{"buffer":0,"byteLength":12096,"byteOffset":9072},{"buffer":0,"byteLength":9072,"byteOffset":21168},{"buffer":0,"byteLength":6048,"byteOffset":30240},{"buffer":0,"byteLength":3024,"byteOffset":36288}],"buffers":[{"byteLength":39312,"uri":"main_level0.bin"}],"extensions":{"KHR_lights_punctual":{"lights":[{"color":[1,1,1],"intensity":1,"range":340282346638528859811704183484516925440,"type":"directional"}]}},"extensionsUsed":["GODOT_single_root","KHR_lights_punctual"],"materials":[{"extensions":{},"pbrMetallicRoughness":{"baseColorFactor":[0.99999988079071,0.99999988079071,0.99999988079071,1],"metallicFactor":0,"roughnessFactor":1}}],"meshes":[{"extras":{"targetNames":[]},"primitives":[{"attributes":{"NORMAL":2,"POSITION":0,"TANGENT":1,"TEXCOORD_0":3},"indices":4,"material":0,"mode":4}]}],"nodes":[{"children":[1,2,3],"extensions":{},"name":"MainLevel"},{"extensions":{},"name":"WorldEnvironment"},{"extensions":{"KHR_lights_punctual":{"light":0}},"name":"DirectionalLight3D","rotation":[-0.12941065430641,0.836515367031097,0.482963532209396,0.22414530813694]},{"children":[4,12,15],"extensions":{},"mesh":0,"name":"Room2","translation":[0,2,0]},{"children":[5,6,7,8,9,10,11],"extensions":{},"name":"CSGCombiner3D"},{"extensions":{},"name":"Corridor","translation":[0,-1,6]},{"extensions":{},"name":"Corridor4","translation":[-12,-1,6]},{"extensions":{},"name":"Corridor2","rotation":[0,-0.70710676908493,0,0.70710676908493],"translation":[-6,-1,12]},{"extensions":{},"name":"Corridor3","rotation":[0,-0.70710676908493,0,0.70710676908493],"translation":[-6,-1,0]},{"extensions":{},"name":"Room22","translation":[0,0,12]},{"extensions":{},"name":"Room3","translation":[-12,0,12]},{"extensions":{},"name":"Room4","translation":[-12,0,0]},{"children":[13,14],"extensions":{},"name":"CSGCombiner3D2"},{"extensions":{},"name":"CSGBox3D2","translation":[3,-1.5,14.1059999465942]},{"extensions":{},"name":"CSGBox3D","translation":[3,-1,10.106143951416]},{"children":[16,17],"extensions":{},"name":"CSGCombiner3D3","translation":[-18,0,0]},{"extensions":{},"name":"CSGBox3D22","translation":[3,-1.5,14.1059999465942]},{"extensions":{},"name":"CSGBox3D3","translation":[3,-1,10.106143951416]}],"scene":0,"scenes":[{"nodes":[0]}]}